<svg width="217.6191462110912" height="62.6776654401385" viewBox="0 0 217.6191462110912 62.6776654401385" class="css-1j8o68f"><defs id="SvgjsDefs1300"></defs><g id="SvgjsG1301" featurekey="G09qjj-0" transform="matrix(0.6655016917304427,0,0,0.6655016917304427,-0.3700188177931191,-1.9358989888926492)" fill="#111111"><path xmlns="http://www.w3.org/2000/svg" d="M99.295,38.587c-0.372-1.14-1.388-1.948-2.582-2.049L65.2,33.831L52.909,4.732c-0.535-1.263-1.838-1.971-3.132-1.797  c-1.219-0.048-2.343,0.679-2.823,1.854L35.181,33.594L3.316,36.016c-1.194,0.092-2.217,0.888-2.603,2.025  c-0.031,0.091,0.013,0.183-0.006,0.274l-0.151,0.013l0.145,0.126c-0.189,1.02,0.076,2.071,0.865,2.773l23.9,21.121L18.354,93.37  c-0.252,1.117,0.177,2.261,1.061,2.972l-0.076,0.345l0.315-0.187c0.941,0.605,2.135,0.683,3.114,0.114l27.387-16.01l27.159,16.072  c0.468,0.275,0.992,0.414,1.515,0.414c0.475,0,0.923-0.215,1.352-0.442l0.191,0.111l-0.038-0.162  c0.074-0.044,0.177-0.025,0.246-0.078c0.965-0.701,1.42-1.905,1.156-3.066L74.75,62.37l23.667-20.606  C99.32,40.975,99.669,39.724,99.295,38.587z M68.586,60.921l-18.607-4.926l23.446,31.447L51.686,74.574  c-0.475-0.275-0.999-0.415-1.523-0.415c-0.062,0-0.12,0.045-0.184,0.052V55.995L26.041,87.783l-0.328,0.193l5.968-26.023  c0.089-0.381,0.013-0.758-0.05-1.13l18.348-4.828L11.886,42.379l-1.073-0.95l26.66-2.024c0.404-0.032,0.751-0.225,1.093-0.401  l11.413,16.991l-0.057-42.691l0.063-0.152L60.4,37.813c0.233,0.552,0.64,0.982,1.124,1.298L49.979,55.995l38.366-13.378  L69.489,59.039C68.928,59.524,68.675,60.208,68.586,60.921z M49.91,3.235l0.006,0.009H49.91V3.235z"></path></g><g id="SvgjsG1302" featurekey="0yvIkK-0" transform="matrix(1.033928791575336,0,0,1.033928791575336,84.94539339183729,16.334070202446533)" fill="#111111"><path d="M8.34 5.48 q3.14 0 4.88 2.22 l-1.08 0.9 q-0.6 -0.9 -1.6 -1.41 t-2.2 -0.51 q-2.64 0 -4.3 1.74 t-1.7 4.5 q0 2.74 1.67 4.47 t4.33 1.77 q1.14 0 2.32 -0.57 t1.86 -1.63 l1.08 0.82 q-1.88 2.58 -5.26 2.58 q-3.28 -0.02 -5.27 -2.12 t-2.05 -5.32 q0 -3.26 2.05 -5.33 t5.27 -2.11 z M19.1 20.24 q-1.76 0 -2.64 -0.99 t-0.88 -3.03 l0 -5.46 l1.2 0 l0 5.4 q0 1.5 0.57 2.25 t1.75 0.75 q1.46 0 2.32 -1 t0.88 -2.82 l0 -4.58 l1.2 0 l0 6.74 q0.04 1.02 0.1 2.5 l-1.2 0 q-0.02 -1.14 -0.08 -1.62 l-0.06 0 q-0.4 0.86 -1.27 1.36 t-1.89 0.5 z M30.92 10.52 q0.34 0 0.7 0.1 l-0.14 1.18 q-0.22 -0.08 -0.48 -0.08 q-1.46 0 -2.23 0.9 t-0.77 2.34 l0 5.04 l-1.2 0 l0 -6.74 q0 -0.2 -0.1 -2.5 l1.2 0 q0.04 1.38 0.08 1.62 q1.04 -1.86 2.94 -1.86 z M33.660000000000004 10.76 l1.2 0 l0 9.24 l-1.2 0 l0 -9.24 z M34.260000000000005 6.199999999999999 q0.4 0 0.65 0.26 t0.25 0.64 t-0.25 0.64 t-0.65 0.26 q-0.38 0 -0.64 -0.26 t-0.26 -0.64 t0.26 -0.64 t0.64 -0.26 z M38.940000000000005 15.379999999999999 q0 1.66 1.04 2.72 t2.62 1.06 q1.64 0 2.65 -1.08 t1.01 -2.7 q0 -1.6 -1 -2.68 t-2.68 -1.1 q-1.62 0 -2.62 1.08 t-1.02 2.7 z M42.6 10.52 q2.12 0 3.48 1.38 t1.38 3.48 q0 2.14 -1.39 3.49 t-3.47 1.37 q-2.18 -0.02 -3.51 -1.4 t-1.35 -3.46 q0 -2.14 1.37 -3.49 t3.49 -1.37 z M52.660000000000004 10.52 q2.34 0 3.24 1.74 l-1.08 0.64 q-0.68 -1.3 -2.16 -1.3 q-0.8 0 -1.39 0.43 t-0.59 1.05 t0.5 0.99 t1.74 0.59 q1.84 0.32 2.54 0.95 t0.7 1.77 q0 1.3 -0.93 2.08 t-2.43 0.78 q-2.64 -0.02 -3.7 -1.88 l1.06 -0.72 q0.34 0.7 1.11 1.11 t1.57 0.41 q0.92 0 1.52 -0.51 t0.6 -1.19 q0 -0.62 -0.49 -1.02 t-2.13 -0.72 q-1.42 -0.28 -2.14 -0.86 t-0.72 -1.68 q0 -1.18 0.9 -1.92 t2.28 -0.74 z M58.86 10.76 l1.2 0 l0 9.24 l-1.2 0 l0 -9.24 z M59.46 6.199999999999999 q0.4 0 0.65 0.26 t0.25 0.64 t-0.25 0.64 t-0.65 0.26 q-0.38 0 -0.64 -0.26 t-0.26 -0.64 t0.26 -0.64 t0.64 -0.26 z M64.14 8.1 l1.2 0 l0 2.66 l2.64 0 l0 1.08 l-2.64 0 l0 6.04 q0 0.58 0.34 0.93 t0.94 0.35 q0.66 0 1.36 -0.32 l0.1 1.08 q-0.9 0.32 -1.58 0.32 q-1.18 0 -1.77 -0.66 t-0.59 -1.7 l0 -6.04 l-2 0 l0 -1.08 l2 0 l0 -2.66 z M70.16 10.76 l3.06 7.78 l2.98 -7.78 l1.28 0 l-4.74 12.06 q-0.78 1.98 -2.56 1.98 q-0.56 0 -1.18 -0.18 l0.12 -1.12 q0.66 0.22 1.08 0.22 q0.46 0 0.82 -0.32 t0.7 -1.16 l0.86 -2.2 l-3.76 -9.28 l1.34 0 z M88.7 10.52 q0.34 0 0.7 0.1 l-0.14 1.18 q-0.22 -0.08 -0.48 -0.08 q-1.46 0 -2.23 0.9 t-0.77 2.34 l0 5.04 l-1.2 0 l0 -6.74 q0 -0.2 -0.1 -2.5 l1.2 0 q0.04 1.38 0.08 1.62 q1.04 -1.86 2.94 -1.86 z M91.92 15.379999999999999 q0 1.66 1.04 2.72 t2.62 1.06 q1.64 0 2.65 -1.08 t1.01 -2.7 q0 -1.6 -1 -2.68 t-2.68 -1.1 q-1.62 0 -2.62 1.08 t-1.02 2.7 z M95.58 10.52 q2.12 0 3.48 1.38 t1.38 3.48 q0 2.14 -1.39 3.49 t-3.47 1.37 q-2.18 -0.02 -3.51 -1.4 t-1.35 -3.46 q0 -2.14 1.37 -3.49 t3.49 -1.37 z M103.17999999999999 10.76 l3.08 7.94 l3 -7.94 l1.22 0 l-3.64 9.24 l-1.24 0 l-3.78 -9.24 l1.36 0 z M119.62 14.6 q0 -1.26 -0.94 -2.13 t-2.28 -0.87 q-1.3 0 -2.24 0.87 t-1.1 2.13 l6.56 0 z M116.48 10.52 q1.92 0 3.12 1.24 t1.22 3.2 l0 0.72 l-7.76 0 q0.08 1.56 1.03 2.51 t2.47 0.97 q0.94 0 1.79 -0.45 t1.31 -1.19 l0.88 0.74 q-1.3 1.98 -4 1.98 q-2.12 -0.02 -3.39 -1.38 t-1.29 -3.5 q0 -2.08 1.31 -3.45 t3.31 -1.39 z M127.62 10.52 q0.34 0 0.7 0.1 l-0.14 1.18 q-0.22 -0.08 -0.48 -0.08 q-1.46 0 -2.23 0.9 t-0.77 2.34 l0 5.04 l-1.2 0 l0 -6.74 q0 -0.2 -0.1 -2.5 l1.2 0 q0.04 1.38 0.08 1.62 q1.04 -1.86 2.94 -1.86 z"></path></g></svg>